<svg width="134" height="120" viewBox="0 0 134 120" fill="none" xmlns="http://www.w3.org/2000/svg">
<path d="M10.4062 21.7344H49.5469C54.3281 21.7344 58.4844 22.25 62.0156 23.2812C65.5781 24.2812 68.5312 25.6719 70.875 27.4531C73.2188 29.2344 74.9531 31.3594 76.0781 33.8281C77.2344 36.2656 77.8125 38.9062 77.8125 41.75C77.8125 46.4062 76.3438 50.4844 73.4062 53.9844C76.7812 55.9844 79.2969 58.5781 80.9531 61.7656C82.6094 64.9531 83.4375 68.5781 83.4375 72.6406C83.4375 76.0469 82.8594 79.125 81.7031 81.875C80.5781 84.625 78.8438 86.9844 76.5 88.9531C74.1875 90.8906 71.25 92.3906 67.6875 93.4531C64.1562 94.4844 59.9844 95 55.1719 95H10.4062V21.7344ZM55.2656 49.8594C56.5469 49.8594 57.7969 49.9062 59.0156 50C61.1094 48 62.1562 45.7188 62.1562 43.1562C62.1562 40.5 61.1094 38.4531 59.0156 37.0156C56.9531 35.5469 53.9219 34.8125 49.9219 34.8125H25.2656V49.8594H55.2656ZM55.5469 82.0625C59.5469 82.0625 62.5781 81.2031 64.6406 79.4844C66.7344 77.7656 67.7812 75.3438 67.7812 72.2188C67.7812 69.0938 66.7344 66.6562 64.6406 64.9062C62.5781 63.1562 59.5469 62.2812 55.5469 62.2812H25.2656V82.0625H55.5469Z" fill="url(#paint0_linear_1536_73)"/>
<path d="M67.1299 22.1387H80.1377V47.0996C82.8623 45.6055 85.8945 44.4189 89.2344 43.54C92.6035 42.6611 96.1338 42.2217 99.8252 42.2217C104.103 42.2217 107.94 42.8516 111.339 44.1113C114.767 45.3711 117.667 47.1875 120.04 49.5605C122.413 51.9043 124.229 54.7607 125.489 58.1299C126.778 61.499 127.423 65.293 127.423 69.5117V95H114.459V70.0391C114.459 67.5781 114.063 65.3369 113.272 63.3154C112.481 61.2646 111.324 59.5068 109.801 58.042C108.277 56.5771 106.417 55.4492 104.22 54.6582C102.052 53.8379 99.5908 53.4277 96.8369 53.4277C93.5264 53.4277 90.4502 53.9551 87.6084 55.0098C84.7666 56.0645 82.2764 57.3975 80.1377 59.0088V95H67.1299V22.1387Z" fill="url(#paint1_linear_1536_73)"/>
<defs>
<linearGradient id="paint0_linear_1536_73" x1="44.5" y1="0" x2="44.5" y2="120" gradientUnits="userSpaceOnUse">
<stop stop-color="#F05B42"/>
<stop offset="1" stop-color="#E4CD9E"/>
</linearGradient>
<linearGradient id="paint1_linear_1536_73" x1="96.5" y1="6" x2="96.5" y2="119" gradientUnits="userSpaceOnUse">
<stop stop-color="#EF5552"/>
<stop offset="1" stop-color="#F29FC5"/>
</linearGradient>
</defs>
</svg>
